<?xml version="1.0" encoding="utf-8"?>
<!-- Generator: Adobe Illustrator 16.0.0, SVG Export Plug-In . SVG Version: 6.00 Build 0)  -->
<!DOCTYPE svg PUBLIC "-//W3C//DTD SVG 1.1//EN" "http://www.w3.org/Graphics/SVG/1.1/DTD/svg11.dtd">
<svg version="1.1" id="Layer_1" xmlns:svg="http://www.w3.org/2000/svg"
	 xmlns="http://www.w3.org/2000/svg" xmlns:xlink="http://www.w3.org/1999/xlink" x="0px" y="0px" width="54.824px"
	 height="55.317px" viewBox="0 -34.434 54.824 55.317" enable-background="new 0 -34.434 54.824 55.317" xml:space="preserve">
<g id="breadboard">
	<rect id="connector0pin" x="0" y="3.09" fill="#868584" width="2.5" height="2.91"/>
	<rect id="connector1pin" x="40.417" y="3.09" fill="#868584" width="2.5" height="2.91"/>
	<rect x="0" y="3.09" fill="#868584" width="42.917" height="2.91"/>
	<path id="Body_1_" fill="#D9B578" d="M15.347-0.086c-0.5-0.228-1.36-0.414-1.91-0.414h-3c-1,0-2,1-2,2v6c0,1,1,2,2,2h3
		c0.55,0,1.409-0.187,1.91-0.414l0.104-0.047c0.501-0.228,1.359-0.414,1.909-0.414h8.155c0.549,0,1.408,0.187,1.91,0.414
		l0.104,0.047c0.5,0.228,1.359,0.414,1.91,0.414h3c1,0,2-1,2-2v-6c0-1-1-2-2-2h-3c-0.551,0-1.41,0.186-1.91,0.413L27.425-0.04
		c-0.5,0.228-1.361,0.413-1.91,0.413H17.36c-0.55,0-1.409-0.186-1.909-0.414L15.347-0.086z"/>
	<path fill="#893E19" d="M13.62-0.494c0.341,0,0.816,0.122,0.816,0.122v9.744c0,0-0.487,0.113-0.709,0.113
		c-0.221,0-2.291,0.014-2.291,0.014V-0.5C11.437-0.5,13.279-0.494,13.62-0.494z"/>
	<path d="M17.372,0.373c0.417,0,2.064,0.001,2.064,0.001v8.251c0,0-1.772,0-2.086,0c-0.313,0-0.914,0.11-0.914,0.11V0.261
		C16.437,0.261,16.956,0.373,17.372,0.373z"/>
	<rect x="21.438" y="0.374" fill="#C3111D" width="3" height="8.251"/>
	<rect x="30.114" y="-0.5" opacity="0.5" fill="#F5E731" enable-background="new    " width="1.149" height="10"/>
	<path id="Reflex_1_" opacity="0.4" fill="#FFFFFF" enable-background="new    " d="M8.937,4c0,0,0-2,0-2.5s0.5-1.5,1.5-1.5s2,0,3,0
		s3,1,3.5,1s8.001,0,9.001,0s2.5-1,3.5-1c0.042,0,0.313,0,0.676,0c0.78,0,1.991,0,2.324,0c0.5,0,1.5,0.5,1.5,1
		c0,1.5,0.095-0.5-2-0.5c-1.5,0-1.5,0-2.5,0s-2.5,1-3.5,1s-8.001,0-9.001,0s-2.5-1-3.5-1s-2,0-3,0c-0.5,0-1,0.5-1,1
		S9.437,3.5,8.937,4z"/>
	<path id="Shaddow_1_" opacity="0.4" enable-background="new    " d="M34.438,5c0,0,0,2,0,2.5c0,1-1,2-2,2s-2,0-3,0
		c-1.259,0-2.806-0.892-3.728-0.892c-0.5,0-7.273,0.017-8.273,0.017c-1.414,0-2.633,0.875-3.633,0.875c-0.133,0-2.88,0-3.367,0
		c-0.676,0-2-0.78-2-2c0-0.09,0-0.401,0-0.5c0-1.5,0.405,1.5,2.5,1.5c1.5,0,1.5,0,2.5,0s2.5-1,3.5-1s8.001,0,9.001,0s2.5,1,3.5,1
		s1,0,2,0c0.5,0,2,0,2-1.5C33.438,6.5,33.938,5,34.438,5z"/>
</g>
<g id="breadboard_1_">
	<rect id="connector0pin_1_" x="42.82" y="-9.013" fill="none" width="2.152" height="0.721"/>
	<rect id="connector1pin_1_" x="50.02" y="-9.013" fill="none" width="2.154" height="0.721"/>
	
		<line id="connector0leg" fill="none" stroke="#8C8C8C" stroke-width="2.988" stroke-linecap="round" x1="43.896" y1="-5.227" x2="43.896" y2="19.39"/>
	
		<line id="connector1leg" fill="none" stroke="#8C8C8C" stroke-width="2.988" stroke-linecap="round" x1="51.098" y1="-5.227" x2="51.098" y2="19.39"/>
	<rect x="42.82" y="-15.054" fill="#8C8C8C" width="2.151" height="9.827"/>
	<path fill="#8C8C8C" d="M52.172-5.227c0-1.174-1.064-2.103-2.088-2.991c-0.416-0.367-1.199-1.002-1.199-1.425v-5.471h-2.161v5.78
		c0,1.058,0.948,1.878,1.946,2.748c0.443,0.376,1.348,1.25,1.348,1.77"/>
	<g id="g12">
		<path id="color_path14" opacity="0.3" fill="#E60000" enable-background="new    " d="M53.541-21.433v-5.912
			c0-3.913-3.168-7.089-7.085-7.089c-3.912,0-7.088,3.17-7.088,7.089v13.648c1.474,1.651,4.097,2.753,7.088,2.753
			c4.618,0,8.368-2.618,8.368-5.859v-1.523C54.824-19.469,54.35-20.53,53.541-21.433z"/>
		<path id="path16" opacity="0.5" fill="#E6E6E6" enable-background="new    " d="M53.541-21.433v-5.912
			c0-3.913-3.168-7.089-7.085-7.089c-3.912,0-7.088,3.17-7.088,7.089v13.648c1.474,1.651,4.097,2.753,7.088,2.753
			c4.618,0,8.368-2.618,8.368-5.859v-1.523C54.824-19.469,54.35-20.53,53.541-21.433z"/>
		<path id="path18" opacity="0.9" fill="#D1D1D1" enable-background="new    " d="M53.541-21.433v3.105
			c0,2.739-3.166,4.966-7.085,4.966c-3.912,0-7.088-2.22-7.088-4.966v3.105v1.524c1.474,1.651,4.097,2.753,7.088,2.753
			c4.618,0,8.368-2.618,8.368-5.859v-1.523C54.824-19.469,54.35-20.53,53.541-21.433z"/>
		<path id="color_path20" opacity="0.7" fill="#E60000" enable-background="new    " d="M53.541-21.433v3.105
			c0,2.739-3.166,4.966-7.085,4.966c-3.912,0-7.088-2.22-7.088-4.966v3.105v1.524c1.474,1.651,4.097,2.753,7.088,2.753
			c4.618,0,8.368-2.618,8.368-5.859v-1.523C54.824-19.469,54.35-20.53,53.541-21.433z"/>
		<path id="color_path22" opacity="0.25" fill="#E60000" enable-background="new    " d="M53.541-21.433v3.105
			c0,2.739-3.166,4.966-7.085,4.966c-3.912,0-7.088-2.22-7.088-4.966v3.105c1.474,1.65,4.097,2.753,7.088,2.753
			c4.618,0,8.368-2.618,8.368-5.859C54.824-19.469,54.35-20.53,53.541-21.433z"/>
		
			<ellipse id="ellipse24" opacity="0.25" fill="#E6E6E6" enable-background="new    " cx="46.456" cy="-18.327" rx="7.087" ry="4.961"/>
		
			<ellipse id="color_ellipse26" opacity="0.25" fill="#E60000" enable-background="new    " cx="46.456" cy="-18.327" rx="7.087" ry="4.961"/>
		<polygon id="polygon28" fill="#666666" points="41.572,-24.785 41.572,-18.326 42.565,-18.326 42.565,-21.339 45.384,-21.339 
			49.381,-25.629 42.776,-25.629 		"/>
		<polygon id="polygon30" fill="#666666" points="50.147,-25.909 50.582,-25.399 46.78,-21.339 50.428,-21.339 50.428,-18.326 
			51.342,-18.326 51.342,-25.909 		"/>
		<path id="color_path32" opacity="0.65" fill="#E60000" enable-background="new    " d="M53.541-21.433v-5.912
			c0-3.913-3.168-7.089-7.085-7.089c-3.912,0-7.088,3.17-7.088,7.089v13.648c1.474,1.651,4.097,2.753,7.088,2.753
			c4.618,0,8.368-2.618,8.368-5.859v-1.523C54.824-19.469,54.35-20.53,53.541-21.433z"/>
		<path id="path34" opacity="0.5" fill="#FFFFFF" enable-background="new    " d="M49.756-30.68l1.438-0.273
			c-0.842-1.132-2.084-1.957-3.543-2.238l0.254,1.081C48.668-31.84,49.313-31.33,49.756-30.68z"/>
		<path id="path36" opacity="0.5" fill="#FFFFFF" enable-background="new    " d="M40.136-14.507v1.52
			c0.649,0.529,1.434,0.977,2.309,1.316v-1.524C41.566-13.531,40.787-13.978,40.136-14.507z"/>
		<path id="path38" opacity="0.5" fill="#FFFFFF" enable-background="new    " d="M50.442-14.224
			c-0.256,0.122-0.531,0.229-0.807,0.33c-0.059,0.02-0.117,0.04-0.178,0.058c-0.564,0.18-1.16,0.319-1.795,0.395
			c-0.074,0.01-0.15,0.02-0.225,0.02c-0.32,0.03-0.643,0.059-0.971,0.059c-0.148,0-0.307-0.015-0.471-0.023
			c-1.2-0.058-2.331-0.314-3.298-0.739v-8.39v-4.826c0-1.471,0.848-2.729,2.074-3.349l-0.023-0.054l-1.248-1.512
			c-1.669,1.003-2.789,2.822-2.789,4.912v11.904c-0.05-0.049-0.309-0.309-0.48-0.529l-0.308,0.688
			c1.401,1.481,3.81,2.462,6.543,2.462c1.68,0,3.236-0.374,4.512-1.003l-0.527-0.408C50.442-14.224,50.442-14.224,50.442-14.224z"/>
	</g>
</g>
</svg>
