<?xml version="1.0" encoding="utf-8"?>
<!-- Generator: Adobe Illustrator 16.0.0, SVG Export Plug-In . SVG Version: 6.00 Build 0)  -->
<!DOCTYPE svg PUBLIC "-//W3C//DTD SVG 1.1//EN" "http://www.w3.org/Graphics/SVG/1.1/DTD/svg11.dtd">
<svg version="1.1" id="Layer_1" xmlns:svg="http://www.w3.org/2000/svg"
	 xmlns="http://www.w3.org/2000/svg" xmlns:xlink="http://www.w3.org/1999/xlink" x="0px" y="0px" width="109.967px"
	 height="128.058px" viewBox="-27.88 -90.348 109.967 128.058" enable-background="new -27.88 -90.348 109.967 128.058"
	 xml:space="preserve">
<g id="breadboard">
	
		<rect id="connector0pin" x="-27.441" y="15.041" transform="matrix(-0.9872 -0.1593 0.1593 -0.9872 -52.423 31.7009)" fill="#868584" width="5" height="5.82"/>
	
		<rect id="connector1pin" x="52.361" y="27.916" transform="matrix(-0.9872 -0.1597 0.1597 -0.9872 104.0966 70.016)" fill="#868584" width="5" height="5.819"/>
	
		<rect x="-27.966" y="21.541" transform="matrix(-0.9872 -0.1593 0.1593 -0.9872 27.162 51.1713)" fill="#868584" width="87.196" height="5.912"/>
	<path id="Body_1_" fill="#D9B578" d="M4.369,13.298c-0.915-0.61-2.554-1.25-3.64-1.425l-5.923-0.956
		c-1.974-0.319-4.268,1.337-4.586,3.312l-1.911,11.846c-0.319,1.975,1.337,4.268,3.312,4.586l5.923,0.956
		c1.086,0.175,2.842,0.078,3.903-0.21l0.22-0.06c1.063-0.291,2.815-0.384,3.901-0.208l16.102,2.597
		c1.084,0.175,2.721,0.816,3.639,1.427l0.19,0.125c0.917,0.609,2.552,1.252,3.64,1.426l5.924,0.956
		c1.975,0.318,4.268-1.338,4.586-3.311l1.912-11.848c0.318-1.975-1.338-4.268-3.313-4.586l-5.924-0.956
		c-1.088-0.175-2.844-0.083-3.904,0.207l-0.221,0.06c-1.058,0.29-2.817,0.382-3.901,0.207L8.196,14.846
		c-1.085-0.175-2.722-0.817-3.637-1.425L4.369,13.298z"/>
	<path fill="#893E19" d="M1.088,11.943c0.673,0.108,1.572,0.501,1.572,0.501l-3.104,19.239c0,0-0.998,0.066-1.436-0.005
		c-0.437-0.07-4.528-0.7-4.528-0.7l3.185-19.743C-3.22,11.236,0.415,11.834,1.088,11.943z"/>
	<path d="M8.22,14.85c0.824,0.133,4.076,0.66,4.076,0.66L9.667,31.8c0,0-3.5-0.564-4.119-0.664c-0.618-0.1-1.84-0.075-1.84-0.075
		L6.408,14.33C6.41,14.33,7.399,14.718,8.22,14.85z"/>
	
		<rect x="14.895" y="16.52" transform="matrix(-0.9873 -0.1592 0.1592 -0.9873 31.62 52.0751)" fill="#C3111D" width="6" height="16.503"/>
	
		<rect x="32.046" y="17.24" transform="matrix(-0.9872 -0.1592 0.1592 -0.9872 61.6332 59.4197)" opacity="0.5" fill="#F5E731" enable-background="new    " width="2.303" height="20"/>
	<path id="Reflex_1_" opacity="0.4" fill="#FFFFFF" enable-background="new    " d="M-9.59,19.324c0,0,0.637-3.949,0.796-4.937
		c0.159-0.987,1.465-2.802,3.439-2.484c1.975,0.319,3.949,0.637,5.924,0.956c1.975,0.318,5.604,2.93,6.591,3.09
		c0.988,0.159,15.798,2.548,17.772,2.867c1.976,0.318,5.254-1.178,7.229-0.859c0.084,0.013,0.619,0.099,1.334,0.215
		c1.543,0.249,3.934,0.635,4.59,0.74c0.986,0.159,2.803,1.465,2.643,2.452c-0.477,2.962,0.35-0.956-3.789-1.624
		c-2.963-0.478-2.963-0.478-4.938-0.796c-1.975-0.319-5.253,1.178-7.227,0.86C22.8,19.485,8.977,17.255,7.002,16.936
		c-1.974-0.318-4.617-2.771-6.592-3.089c-1.975-0.318-3.949-0.637-5.923-0.956c-0.987-0.159-2.133,0.669-2.292,1.656
		C-7.966,15.535-8.443,18.496-9.59,19.324z"/>
	<path id="Shaddow_1_" opacity="0.4" enable-background="new    " d="M40.441,29.422c0,0-0.637,3.948-0.797,4.936
		c-0.318,1.976-2.611,3.63-4.586,3.313c-1.973-0.318-3.949-0.638-5.924-0.956c-2.482-0.4-5.255-2.656-7.075-2.95
		c-0.987-0.159-14.366-2.281-16.341-2.601c-2.792-0.449-5.477,0.889-7.451,0.571c-0.263-0.043-5.687-0.918-6.648-1.073
		c-1.334-0.216-3.7-2.178-3.312-4.586c0.029-0.177,0.127-0.792,0.159-0.987c0.478-2.962,0.321,3.091,4.458,3.759
		c2.961,0.477,2.961,0.477,4.936,0.795c1.975,0.32,5.255-1.177,7.229-0.859c1.975,0.319,15.797,2.55,17.772,2.868
		c1.974,0.318,4.616,2.771,6.592,3.089c1.973,0.318,1.973,0.318,3.949,0.637c0.986,0.16,3.947,0.639,4.426-2.324
		C37.988,32.065,39.455,29.263,40.441,29.422z"/>
</g>
<g id="breadboard_1_">
	<rect id="connector0pin_1_" x="70.878" y="-39.507" fill="none" width="4.305" height="1.443"/>
	<rect id="connector1pin_1_" x="56.476" y="-39.507" fill="none" width="4.309" height="1.443"/>
	
		<line id="connector0leg" fill="none" stroke="#8C8C8C" stroke-width="2.988" stroke-linecap="round" x1="73.03" y1="17.3" x2="73.03" y2="-31.934"/>
	
		<line id="connector1leg" fill="none" stroke="#8C8C8C" stroke-width="2.988" stroke-linecap="round" x1="58.628" y1="17.3" x2="58.628" y2="-31.934"/>
	<rect x="70.882" y="-51.589" fill="#8C8C8C" width="4.301" height="19.654"/>
	<path fill="#8C8C8C" d="M60.788-31.112c0-1.039,1.809-2.787,2.695-3.539c1.996-1.74,3.891-3.381,3.891-5.496v-11.561h-4.32v10.941
		c0,0.848-1.566,2.117-2.398,2.852c-2.047,1.775-4.176,3.633-4.176,5.98"/>
	<g id="g12">
		<path id="color_path14" opacity="0.3" fill="#E60000" enable-background="new    " d="M51.175-58.132v3.047
			c0,6.48,7.5,11.717,16.736,11.717c5.982,0,11.229-2.203,14.176-5.506v-27.297c0-7.838-6.352-14.178-14.176-14.178
			c-7.834,0-14.17,6.354-14.17,14.178v11.824C52.124-62.54,51.175-60.417,51.175-58.132z"/>
		<path id="path16" opacity="0.5" fill="#E6E6E6" enable-background="new    " d="M51.175-58.132v3.047
			c0,6.48,7.5,11.717,16.736,11.717c5.982,0,11.229-2.203,14.176-5.506v-27.297c0-7.838-6.352-14.178-14.176-14.178
			c-7.834,0-14.17,6.354-14.17,14.178v11.824C52.124-62.54,51.175-60.417,51.175-58.132z"/>
		<path id="path18" opacity="0.9" fill="#D1D1D1" enable-background="new    " d="M51.175-58.135v3.045
			c0,6.482,7.5,11.719,16.736,11.719c5.982,0,11.229-2.203,14.176-5.506v-3.049v-6.209c0,5.492-6.352,9.932-14.176,9.932
			c-7.838,0-14.17-4.453-14.17-9.932v-6.211C52.124-62.54,51.175-60.417,51.175-58.135z"/>
		<path id="color_path20" opacity="0.7" fill="#E60000" enable-background="new    " d="M51.175-58.135v3.045
			c0,6.482,7.5,11.719,16.736,11.719c5.982,0,11.229-2.203,14.176-5.506v-3.049v-6.209c0,5.492-6.352,9.932-14.176,9.932
			c-7.838,0-14.17-4.453-14.17-9.932v-6.211C52.124-62.54,51.175-60.417,51.175-58.135z"/>
		<path id="color_path22" opacity="0.25" fill="#E60000" enable-background="new    " d="M51.175-58.137
			c0,6.482,7.5,11.717,16.736,11.717c5.982,0,11.229-2.205,14.176-5.506v-6.209c0,5.492-6.352,9.932-14.176,9.932
			c-7.838,0-14.17-4.453-14.17-9.932v-6.211C52.124-62.54,51.175-60.417,51.175-58.137z"/>
		
			<ellipse id="ellipse24" opacity="0.25" fill="#E6E6E6" enable-background="new    " cx="67.911" cy="-58.134" rx="14.174" ry="9.922"/>
		
			<ellipse id="color_ellipse26" opacity="0.25" fill="#E60000" enable-background="new    " cx="67.911" cy="-58.134" rx="14.174" ry="9.922"/>
		<polygon id="polygon28" fill="#666666" points="75.272,-72.737 62.062,-72.737 70.056,-64.157 75.694,-64.157 75.694,-58.132 
			77.679,-58.132 77.679,-71.05 		"/>
		<polygon id="polygon30" fill="#666666" points="58.14,-73.298 58.14,-58.132 59.968,-58.132 59.968,-64.157 67.265,-64.157 
			59.659,-72.278 60.53,-73.298 		"/>
		<path id="color_path32" opacity="0.65" fill="#E60000" enable-background="new    " d="M51.175-58.132v3.047
			c0,6.48,7.5,11.717,16.736,11.717c5.982,0,11.229-2.203,14.176-5.506v-27.297c0-7.838-6.352-14.178-14.176-14.178
			c-7.834,0-14.17,6.354-14.17,14.178v11.824C52.124-62.54,51.175-60.417,51.175-58.132z"/>
		<path id="path34" opacity="0.5" fill="#FFFFFF" enable-background="new    " d="M65.015-85.7l0.508-2.162
			c-2.918,0.563-5.402,2.213-7.086,4.477l2.875,0.545C62.198-84.139,63.487-85.159,65.015-85.7z"/>
		<path id="path36" opacity="0.5" fill="#FFFFFF" enable-background="new    " d="M75.933-47.87v3.049
			c1.75-0.678,3.32-1.574,4.617-2.633v-3.039C79.249-49.436,77.69-48.542,75.933-47.87z"/>
		<path id="path38" opacity="0.5" fill="#FFFFFF" enable-background="new    " d="M59.921-49.938l-1.055,0.816
			c2.553,1.258,5.664,2.006,9.025,2.006c5.467,0,10.283-1.961,13.086-4.924l-0.615-1.375c-0.344,0.439-0.861,0.959-0.961,1.057
			v-23.807c0-4.182-2.24-7.818-5.578-9.824l-2.496,3.023l-0.047,0.107c2.453,1.24,4.148,3.756,4.148,6.699v9.65v16.781
			c-1.934,0.85-4.195,1.361-6.596,1.479c-0.328,0.016-0.646,0.045-0.941,0.045c-0.656,0-1.303-0.059-1.943-0.117
			c-0.148,0-0.301-0.021-0.449-0.041c-1.27-0.152-2.461-0.43-3.59-0.789c-0.121-0.037-0.238-0.076-0.355-0.117
			c-0.553-0.201-1.102-0.416-1.613-0.66C59.94-49.928,59.94-49.928,59.921-49.938z"/>
	</g>
</g>
</svg>
